# xmcd
#
# Track frame offsets:
#	150
#	13760
#	25508
#	35001
#	44949
#	55094
#	66334
#	76204
#	85678
#	97034
#
# Disc length: 1447 seconds
# Revision: 0
# Processed by: cddbd v1.5.2PL0 Copyright (c) Steve Scherf et al.
# Submitted via: dBpowerAMP V12.0
#
DISCID=7d05a50a
DTITLE=Buddy Meredith - The Best of Buddy Meredith: Volume 1.
DYEAR=1900
DGENRE=Country
TTITLE0=Little Black Bug
TTITLE1=Secret Sin
TTITLE2=We’ve Let Love Go To Sleep
TTITLE3=A Heart is No Plaything
TTITLE4=Love Only Hurts
TTITLE5=For The Love of Mike
TTITLE6=Just Call My Name
TTITLE7=Here I am Again
TTITLE8=Accidental Touch
TTITLE9=River Boat Gambler
EXTD=
EXTT0=
EXTT1=
EXTT2=
EXTT3=
EXTT4=
EXTT5=
EXTT6=
EXTT7=
EXTT8=
EXTT9=
PLAYORDER=
